<svg width="41" height="41" viewBox="0 0 41 41" fill="none" xmlns="http://www.w3.org/2000/svg">
<rect width="41" height="41" fill="#00BCD5"/>
<path d="M21.5489 9.81298C20.7488 8.83561 19.2541 8.83562 18.4539 9.81298L17.4621 11.0244L15.9974 10.4712C14.8158 10.0249 13.5214 10.7722 13.3171 12.0187L13.0638 13.5638L11.5188 13.817C10.2723 14.0213 9.52494 15.3157 9.97127 16.4974L10.5245 17.962L9.31304 18.9538C8.33567 19.754 8.33568 21.2487 9.31305 22.0489L10.5245 23.0407L9.97127 24.5054C9.52494 25.687 10.2722 26.9814 11.5188 27.1857L13.0638 27.439L13.3171 28.984C13.5214 30.2305 14.8158 30.9779 15.9974 30.5315L17.4621 29.9783L18.4539 31.1898C19.2541 32.1671 20.7488 32.1671 21.5489 31.1898L22.5408 29.9783L24.0055 30.5315C25.1871 30.9779 26.4815 30.2305 26.6858 28.984L26.9391 27.439L28.4841 27.1857C29.7306 26.9814 30.478 25.687 30.0316 24.5054L29.4784 23.0407L30.6899 22.0489C31.6672 21.2488 31.6672 19.754 30.6899 18.9538L29.4784 17.962L30.0316 16.4974C30.478 15.3157 29.7306 14.0213 28.4841 13.817L26.9391 13.5638L26.6858 12.0187C26.4815 10.7722 25.1871 10.0249 24.0055 10.4712L22.5408 11.0244L21.5489 9.81298Z" fill="#6EC4E4"/>
<path fill-rule="evenodd" clip-rule="evenodd" d="M26.2081 17.7085L19.2081 24.7085C19.0205 24.896 18.7662 25.0014 18.501 25.0014C18.2358 25.0014 17.9814 24.896 17.7939 24.7085L13.7939 20.7085L15.2081 19.2943L18.501 22.5872L24.7939 16.2943L26.2081 17.7085Z" fill="#217FA4"/>
</svg>
