<svg width="41" height="41" viewBox="0 0 41 41" fill="none" xmlns="http://www.w3.org/2000/svg">
<rect width="41" height="41" fill="#A8E8F0"/>
<path fill-rule="evenodd" clip-rule="evenodd" d="M32.2718 19.3829C31.6297 19.3829 30.9878 19.624 30.5042 20.1075L27.5706 23.0431C27.2457 22.5302 26.7399 22.1303 26.1155 21.963L19.1917 20.1075C18.6399 19.9597 18.0693 19.9319 17.5159 20.0157C16.9626 20.0996 16.4269 20.295 15.9437 20.5997L11.6214 23.3263L11.2718 22.7189C10.8364 21.9647 9.83647 21.6975 9.08233 22.1329L5.79522 24.0294C5.04108 24.4648 4.77389 25.4647 5.20929 26.2189L10.1077 34.7013C10.5431 35.4554 11.5411 35.7246 12.2952 35.2892L15.5823 33.3907C16.3365 32.9553 16.6056 31.9554 16.1702 31.2013L16.1057 31.088L17.9788 29.8224L24.8694 31.1779C25.8137 31.3635 26.6579 31.1001 27.3303 30.4122C29.5528 28.139 31.7781 25.876 34.0354 23.6486C34.0374 23.6472 34.0394 23.6459 34.0414 23.6446C35.0085 22.6775 35.0085 21.0746 34.0414 20.1075C33.5579 19.6239 32.9139 19.3829 32.2718 19.3829ZM32.2718 21.3654C32.3965 21.3654 32.5212 21.4176 32.6253 21.5216C32.8334 21.7297 32.8334 22.0225 32.6253 22.2306C30.3557 24.4703 28.1239 26.7418 25.9007 29.0157C25.8599 29.0575 25.3131 29.2262 25.2562 29.215L17.9573 27.7814C17.8278 27.7558 17.6945 27.756 17.5652 27.7822C17.4358 27.8083 17.3128 27.8598 17.2034 27.9337L15.1038 29.3536L12.6233 25.0587L17.0101 22.2931C17.5058 21.9805 18.108 21.8875 18.6741 22.0392L25.598 23.8947C25.8822 23.9709 26.0276 24.2237 25.9515 24.5079C25.8753 24.7922 25.6224 24.9376 25.3382 24.8615L20.9925 23.6974C20.7363 23.6288 20.4634 23.6647 20.2338 23.7973C20.0041 23.9299 19.8365 24.1483 19.7679 24.4044C19.6993 24.6606 19.7352 24.9335 19.8678 25.1631C20.0004 25.3928 20.2188 25.5604 20.4749 25.629L24.8206 26.7931C25.7964 27.0546 26.8074 26.6844 27.4124 25.9415C27.5091 25.8973 27.5981 25.838 27.6761 25.7657L31.9183 21.5216C32.0223 21.4176 32.1471 21.3654 32.2718 21.3654ZM9.73858 24.0626L10.223 24.9025C10.2401 25.0443 10.2873 25.1808 10.3616 25.3029C10.4258 25.4001 10.5064 25.4853 10.5999 25.5548L14.2386 31.8575L11.6409 33.3575L7.14093 25.5626L9.73858 24.0626ZM23.8519 13.5021C23.5866 13.5021 23.3323 13.6074 23.1448 13.795C22.9572 13.9825 22.8519 14.2369 22.8519 14.5021C22.8519 14.7673 22.9572 15.0216 23.1448 15.2092C23.3323 15.3967 23.5866 15.5021 23.8519 15.5021H25.8519C26.1171 15.5021 26.3714 15.3967 26.559 15.2092C26.7465 15.0216 26.8519 14.7673 26.8519 14.5021C26.8519 14.2369 26.7465 13.9825 26.559 13.795C26.3714 13.6074 26.1171 13.5021 25.8519 13.5021H23.8519ZM23.8519 9.50208C23.5866 9.50208 23.3323 9.60742 23.1448 9.79495C22.9572 9.98249 22.8519 10.2369 22.8519 10.5021C22.8519 10.7673 22.9572 11.0216 23.1448 11.2092C23.3323 11.3967 23.5866 11.5021 23.8519 11.5021H25.8519C26.1171 11.5021 26.3714 11.3967 26.559 11.2092C26.7465 11.0216 26.8519 10.7673 26.8519 10.5021C26.8519 10.2369 26.7465 9.98249 26.559 9.79495C26.3714 9.60742 26.1171 9.50208 25.8519 9.50208H23.8519Z" fill="#00BCD5"/>
<path fill-rule="evenodd" clip-rule="evenodd" d="M24.8519 5.50208C20.9977 5.50208 17.8519 8.64795 17.8519 12.5021C17.8519 16.3562 20.9977 19.5021 24.8519 19.5021C28.706 19.5021 31.8519 16.3562 31.8519 12.5021C31.8519 8.64795 28.706 5.50208 24.8519 5.50208ZM24.8519 7.50208C27.6251 7.50208 29.8519 9.72882 29.8519 12.5021C29.8519 15.2753 27.6251 17.5021 24.8519 17.5021C22.0786 17.5021 19.8519 15.2753 19.8519 12.5021C19.8519 9.72882 22.0786 7.50208 24.8519 7.50208Z" fill="#00BCD5"/>
</svg>
