<svg width="37" height="37" viewBox="0 0 37 37" fill="none" xmlns="http://www.w3.org/2000/svg">
<path d="M34.9444 0H2.05556C0.920304 0 0 0.920304 0 2.05556V34.9444C0 36.0797 0.920304 37 2.05556 37H34.9444C36.0797 37 37 36.0797 37 34.9444V2.05556C37 0.920304 36.0797 0 34.9444 0Z" fill="#117EB8"/>
<path fill-rule="evenodd" clip-rule="evenodd" d="M6.75203 14.3107H11.6972V30.2217H6.75203V14.3107ZM9.22537 6.40139C10.8066 6.40139 12.0913 7.68612 12.0913 9.26735C12.0913 10.8501 10.8066 12.1354 9.22537 12.1354C8.84431 12.1426 8.46563 12.0738 8.11147 11.9329C7.75731 11.7921 7.43479 11.5821 7.16274 11.3151C6.8907 11.0482 6.67461 10.7297 6.52709 10.3783C6.37957 10.0268 6.30359 9.64951 6.30359 9.26838C6.30359 8.88724 6.37957 8.50994 6.52709 8.15851C6.67461 7.80708 6.8907 7.48859 7.16274 7.22165C7.43479 6.95471 7.75731 6.74468 8.11147 6.60384C8.46563 6.463 8.84431 6.39418 9.22537 6.40139ZM14.799 14.3101H19.5422V16.4844H19.608C20.2683 15.2336 21.8814 13.915 24.2869 13.915C29.2943 13.915 30.2193 17.2105 30.2193 21.4948V30.2217H25.2772V22.4841C25.2772 20.6392 25.2433 18.2655 22.7078 18.2655C20.1347 18.2655 19.7395 20.2754 19.7395 22.351V30.2217H14.7985V14.3107L14.799 14.3101Z" fill="white"/>
</svg>
