<svg width="50" height="36" viewBox="0 0 50 36" fill="none" xmlns="http://www.w3.org/2000/svg">
<path d="M20.7077 35.0724C11.1854 34.8971 7.93312 34.7394 5.93405 34.3275C4.58154 34.0539 3.40621 33.4463 2.54443 32.565C1.87838 31.898 1.34869 30.8804 0.937748 29.4685C0.585242 28.2923 0.44795 27.3136 0.252217 24.9231C-0.0474124 19.5279 -0.118841 15.1169 0.252217 10.1883C0.55834 7.46662 0.706763 4.23563 2.74016 2.35065C3.70028 1.46846 4.81716 0.900744 6.07134 0.66605C8.03053 0.294064 16.3775 0 25.0185 0C33.64 0 42.0055 0.294064 43.9666 0.66605C45.5334 0.960114 47.0028 1.84138 47.8655 2.97774C49.7208 5.89611 49.7532 9.52506 49.9416 12.3637C50.0195 13.7162 50.0195 21.3961 49.9416 22.7487C49.6484 27.2347 49.4128 28.8219 48.7468 30.4676C48.3349 31.5066 47.9833 32.0548 47.3748 32.6624C46.4204 33.5974 45.2037 34.2194 43.8868 34.4453C35.6465 35.065 28.6493 35.1995 20.7077 35.0724ZM33.3265 17.0464C28.7421 14.5965 24.3525 12.3247 19.8654 9.97312V24.0418C24.5871 21.475 29.5649 19.1234 33.346 17.0269L33.3265 17.0464Z" fill="#CD201F"/>
</svg>
